<svg width="35" height="35" viewBox="0 0 35 35" fill="none" xmlns="http://www.w3.org/2000/svg">
<path d="M22.0908 18.3989L24.2531 30.5678C24.2773 30.7111 24.2572 30.8583 24.1955 30.9899C24.1337 31.1215 24.0333 31.231 23.9076 31.304C23.7819 31.3769 23.6369 31.4097 23.4921 31.398C23.3472 31.3864 23.2094 31.3307 23.097 31.2386L17.9874 27.4035C17.7407 27.2193 17.4411 27.1197 17.1332 27.1197C16.8253 27.1197 16.5256 27.2193 16.279 27.4035L11.1608 31.2372C11.0485 31.3291 10.9108 31.3847 10.7661 31.3964C10.6215 31.4081 10.4767 31.3754 10.351 31.3026C10.2254 31.2299 10.125 31.1206 10.0631 30.9893C10.0012 30.858 9.98084 30.711 10.0047 30.5678L12.1656 18.3989" stroke="#213526" stroke-width="2.85453" stroke-linecap="round" stroke-linejoin="round"/>
<path d="M17.1278 19.9841C21.8573 19.9841 25.6914 16.1501 25.6914 11.4205C25.6914 6.69098 21.8573 2.85693 17.1278 2.85693C12.3983 2.85693 8.56421 6.69098 8.56421 11.4205C8.56421 16.1501 12.3983 19.9841 17.1278 19.9841Z" stroke="#213526" stroke-width="2.85453" stroke-linecap="round" stroke-linejoin="round"/>
</svg>
