<svg width="35" height="35" viewBox="0 0 35 35" fill="none" xmlns="http://www.w3.org/2000/svg">
<path d="M15.6986 28.5477C13.1924 28.5553 10.7749 27.6207 8.92557 25.9293C7.07621 24.2378 5.9301 21.9131 5.71453 19.4162C5.49897 16.9193 6.22971 14.4326 7.76182 12.4492C9.29393 10.4659 11.5155 9.13076 13.9859 8.70872C22.1213 7.13873 24.2622 6.39655 27.1167 2.85693C28.544 5.71146 29.9713 8.8229 29.9713 14.275C29.9713 22.125 23.1489 28.5477 15.6986 28.5477Z" stroke="#213526" stroke-width="2.85453" stroke-linecap="round" stroke-linejoin="round"/>
<path d="M2.8573 29.9733C2.8573 25.6915 5.49774 22.3232 10.1078 21.4097C13.5618 20.7246 17.1299 18.5552 18.5572 17.1279" stroke="#213526" stroke-width="2.85453" stroke-linecap="round" stroke-linejoin="round"/>
</svg>
