<svg width="22" height="22" viewBox="0 0 22 22" fill="none" xmlns="http://www.w3.org/2000/svg">
<path d="M18.3332 9.16683C18.3332 13.7437 13.2558 18.5104 11.5508 19.9826C11.3919 20.102 11.1986 20.1666 10.9998 20.1666C10.8011 20.1666 10.6078 20.102 10.4489 19.9826C8.74392 18.5104 3.6665 13.7437 3.6665 9.16683C3.6665 7.22191 4.43912 5.35665 5.81439 3.98138C7.18965 2.60611 9.05492 1.8335 10.9998 1.8335C12.9448 1.8335 14.81 2.60611 16.1853 3.98138C17.5606 5.35665 18.3332 7.22191 18.3332 9.16683Z" stroke="#056839" stroke-width="1.83333" stroke-linecap="round" stroke-linejoin="round"/>
<path d="M11 11.9165C12.5188 11.9165 13.75 10.6853 13.75 9.1665C13.75 7.64772 12.5188 6.4165 11 6.4165C9.48122 6.4165 8.25 7.64772 8.25 9.1665C8.25 10.6853 9.48122 11.9165 11 11.9165Z" stroke="#056839" stroke-width="1.83333" stroke-linecap="round" stroke-linejoin="round"/>
</svg>
