<svg width="22" height="22" viewBox="0 0 22 22" fill="none" xmlns="http://www.w3.org/2000/svg">
<path d="M10.0831 18.3335C8.47348 18.3384 6.92082 17.7381 5.73306 16.6518C4.54531 15.5655 3.80921 14.0724 3.67076 12.4688C3.53232 10.8651 4.00164 9.26799 4.98564 7.99418C5.96965 6.72036 7.39646 5.86289 8.98309 5.59183C14.2081 4.5835 15.5831 4.10683 17.4164 1.8335C18.3331 3.66683 19.2498 5.66516 19.2498 9.16683C19.2498 14.2085 14.8681 18.3335 10.0831 18.3335Z" stroke="#054F31" stroke-width="1.83333" stroke-linecap="round" stroke-linejoin="round"/>
<path d="M1.8335 19.25C1.8335 16.5 3.52933 14.3367 6.49016 13.75C8.7085 13.31 11.0002 11.9167 11.9168 11" stroke="#054F31" stroke-width="1.83333" stroke-linecap="round" stroke-linejoin="round"/>
</svg>
