<svg width="22" height="22" viewBox="0 0 22 22" fill="none" xmlns="http://www.w3.org/2000/svg">
<path d="M14.187 11.8159L15.5758 19.6314C15.5913 19.7234 15.5784 19.818 15.5388 19.9025C15.4991 19.987 15.4346 20.0574 15.3539 20.1042C15.2731 20.1511 15.18 20.1722 15.087 20.1647C14.994 20.1571 14.9055 20.1214 14.8333 20.0623L11.5516 17.5992C11.3932 17.4808 11.2007 17.4169 11.003 17.4169C10.8052 17.4169 10.6128 17.4808 10.4544 17.5992L7.16719 20.0613C7.09507 20.1204 7.00665 20.1561 6.91373 20.1636C6.82081 20.1711 6.72781 20.1501 6.64713 20.1034C6.56645 20.0567 6.50194 19.9865 6.4622 19.9021C6.42245 19.8178 6.40937 19.7234 6.42469 19.6314L7.81252 11.8159" stroke="#054F31" stroke-width="1.83333" stroke-linecap="round" stroke-linejoin="round"/>
<path d="M11 12.8335C14.0376 12.8335 16.5 10.3711 16.5 7.3335C16.5 4.29593 14.0376 1.8335 11 1.8335C7.96243 1.8335 5.5 4.29593 5.5 7.3335C5.5 10.3711 7.96243 12.8335 11 12.8335Z" stroke="#054F31" stroke-width="1.83333" stroke-linecap="round" stroke-linejoin="round"/>
</svg>
