<svg width="15" height="15" viewBox="0 0 15 15" fill="none" xmlns="http://www.w3.org/2000/svg">
<g clip-path="url(#clip0_4844_407)">
<path d="M10.625 1.25H4.375C2.64911 1.25 1.25 2.64911 1.25 4.375V10.625C1.25 12.3509 2.64911 13.75 4.375 13.75H10.625C12.3509 13.75 13.75 12.3509 13.75 10.625V4.375C13.75 2.64911 12.3509 1.25 10.625 1.25Z" stroke="white" stroke-opacity="0.6" stroke-width="1.25" stroke-linecap="round" stroke-linejoin="round"/>
<path d="M10 7.10595C10.0771 7.6261 9.98829 8.15734 9.7461 8.62408C9.50391 9.09083 9.12072 9.46933 8.65102 9.70575C8.18132 9.94216 7.64903 10.0244 7.12987 9.94091C6.6107 9.85737 6.1311 9.61225 5.75927 9.24043C5.38745 8.8686 5.14233 8.389 5.05879 7.86983C4.97525 7.35067 5.05754 6.81838 5.29395 6.34868C5.53037 5.87898 5.90887 5.49579 6.37562 5.2536C6.84236 5.01141 7.3736 4.92257 7.89375 4.9997C8.42433 5.07838 8.91553 5.32561 9.29481 5.70489C9.67409 6.08417 9.92132 6.57537 10 7.10595Z" stroke="white" stroke-opacity="0.6" stroke-width="1.25" stroke-linecap="round" stroke-linejoin="round"/>
<path d="M10.9375 4.0625H10.9438" stroke="white" stroke-opacity="0.6" stroke-width="1.25" stroke-linecap="round" stroke-linejoin="round"/>
</g>
<defs>
<clipPath id="clip0_4844_407">
<rect width="15" height="15" fill="white"/>
</clipPath>
</defs>
</svg>
