<svg width="20" height="20" viewBox="0 0 20 20" fill="none" xmlns="http://www.w3.org/2000/svg">
<path d="M10.6916 1.8168C10.4744 1.71776 10.2385 1.6665 9.99989 1.6665C9.76123 1.6665 9.52536 1.71776 9.30822 1.8168L2.16656 5.0668C2.01868 5.132 1.89295 5.2388 1.80469 5.37418C1.71643 5.50956 1.66943 5.66769 1.66943 5.8293C1.66943 5.99091 1.71643 6.14904 1.80469 6.28442C1.89295 6.4198 2.01868 6.5266 2.16656 6.5918L9.31656 9.85013C9.53369 9.94918 9.76956 10.0004 10.0082 10.0004C10.2469 10.0004 10.4828 9.94918 10.6999 9.85013L17.8499 6.60013C17.9978 6.53493 18.1235 6.42814 18.2118 6.29275C18.3 6.15737 18.347 5.99925 18.347 5.83763C18.347 5.67602 18.3 5.5179 18.2118 5.38251C18.1235 5.24713 17.9978 5.14034 17.8499 5.07513L10.6916 1.8168Z" stroke="#056839" stroke-width="1.66667" stroke-linecap="round" stroke-linejoin="round"/>
<path d="M1.66651 10C1.66611 10.1594 1.71144 10.3155 1.7971 10.45C1.88277 10.5844 2.00519 10.6914 2.14984 10.7583L9.31651 14.0167C9.53251 14.1145 9.76689 14.1651 10.004 14.1651C10.2411 14.1651 10.4755 14.1145 10.6915 14.0167L17.8415 10.7667C17.989 10.7004 18.114 10.5926 18.2013 10.4564C18.2886 10.3203 18.3345 10.1617 18.3332 10" stroke="#056839" stroke-width="1.66667" stroke-linecap="round" stroke-linejoin="round"/>
<path d="M1.66651 14.1665C1.66611 14.3259 1.71144 14.4821 1.7971 14.6165C1.88277 14.7509 2.00519 14.8579 2.14984 14.9248L9.31651 18.1832C9.53251 18.281 9.76689 18.3316 10.004 18.3316C10.2411 18.3316 10.4755 18.281 10.6915 18.1832L17.8415 14.9332C17.989 14.8669 18.114 14.7591 18.2013 14.6229C18.2886 14.4868 18.3345 14.3282 18.3332 14.1665" stroke="#056839" stroke-width="1.66667" stroke-linecap="round" stroke-linejoin="round"/>
</svg>
