<svg width="16" height="16" viewBox="0 0 16 16" fill="none" xmlns="http://www.w3.org/2000/svg">
<path d="M7.24318 13.1747C6.08648 13.1782 4.9707 12.7468 4.11715 11.9661C3.26361 11.1855 2.73463 10.1125 2.63514 8.96013C2.53565 7.8077 2.87291 6.65998 3.58004 5.74459C4.28717 4.82919 5.31251 4.213 6.4527 4.01821C10.2075 3.29359 11.1956 2.95105 12.5131 1.31738C13.1718 2.63486 13.8306 4.07091 13.8306 6.58728C13.8306 10.2103 10.6818 13.1747 7.24318 13.1747Z" stroke="#97CCB3" stroke-width="1.31747" stroke-linecap="round" stroke-linejoin="round"/>
<path d="M1.31601 13.8334C1.31601 11.8572 2.53467 10.3026 4.6624 9.881C6.25654 9.5648 7.90338 8.56352 8.56212 7.90479" stroke="#97CCB3" stroke-width="1.31747" stroke-linecap="round" stroke-linejoin="round"/>
</svg>
