<svg width="15" height="15" viewBox="0 0 15 15" fill="none" xmlns="http://www.w3.org/2000/svg">
<g clip-path="url(#clip0_4844_418)">
<path d="M10 5C10.9946 5 11.9484 5.39509 12.6517 6.09835C13.3549 6.80161 13.75 7.75544 13.75 8.75V13.125H11.25V8.75C11.25 8.41848 11.1183 8.10054 10.8839 7.86612C10.6495 7.6317 10.3315 7.5 10 7.5C9.66848 7.5 9.35054 7.6317 9.11612 7.86612C8.8817 8.10054 8.75 8.41848 8.75 8.75V13.125H6.25V8.75C6.25 7.75544 6.64509 6.80161 7.34835 6.09835C8.05161 5.39509 9.00544 5 10 5Z" stroke="white" stroke-opacity="0.6" stroke-width="1.25" stroke-linecap="round" stroke-linejoin="round"/>
<path d="M3.75 5.625H1.25V13.125H3.75V5.625Z" stroke="white" stroke-opacity="0.6" stroke-width="1.25" stroke-linecap="round" stroke-linejoin="round"/>
<path d="M2.5 3.75C3.19036 3.75 3.75 3.19036 3.75 2.5C3.75 1.80964 3.19036 1.25 2.5 1.25C1.80964 1.25 1.25 1.80964 1.25 2.5C1.25 3.19036 1.80964 3.75 2.5 3.75Z" stroke="white" stroke-opacity="0.6" stroke-width="1.25" stroke-linecap="round" stroke-linejoin="round"/>
</g>
<defs>
<clipPath id="clip0_4844_418">
<rect width="15" height="15" fill="white"/>
</clipPath>
</defs>
</svg>
