<svg width="14" height="14" viewBox="0 0 14 14" fill="none" xmlns="http://www.w3.org/2000/svg">
<g clip-path="url(#clip0_4844_464)">
<path d="M11.6667 5.83366C11.6667 8.74624 8.43562 11.7796 7.35062 12.7164C7.24955 12.7924 7.12651 12.8335 7.00004 12.8335C6.87357 12.8335 6.75053 12.7924 6.64946 12.7164C5.56446 11.7796 2.33337 8.74624 2.33337 5.83366C2.33337 4.59598 2.82504 3.409 3.70021 2.53383C4.57538 1.65866 5.76236 1.16699 7.00004 1.16699C8.23772 1.16699 9.4247 1.65866 10.2999 2.53383C11.175 3.409 11.6667 4.59598 11.6667 5.83366Z" stroke="#EDFAF5" stroke-width="1.16667" stroke-linecap="round" stroke-linejoin="round"/>
<path d="M7 7.58301C7.9665 7.58301 8.75 6.79951 8.75 5.83301C8.75 4.86651 7.9665 4.08301 7 4.08301C6.0335 4.08301 5.25 4.86651 5.25 5.83301C5.25 6.79951 6.0335 7.58301 7 7.58301Z" stroke="#EDFAF5" stroke-width="1.16667" stroke-linecap="round" stroke-linejoin="round"/>
</g>
<defs>
<clipPath id="clip0_4844_464">
<rect width="14" height="14" fill="white"/>
</clipPath>
</defs>
</svg>
