<svg width="22" height="22" viewBox="0 0 22 22" fill="none" xmlns="http://www.w3.org/2000/svg">
<path d="M14.6668 19.25V17.4167C14.6668 16.4442 14.2805 15.5116 13.5929 14.8239C12.9053 14.1363 11.9726 13.75 11.0002 13.75H5.50016C4.5277 13.75 3.59507 14.1363 2.90744 14.8239C2.2198 15.5116 1.8335 16.4442 1.8335 17.4167V19.25" stroke="#054F31" stroke-width="1.83333" stroke-linecap="round" stroke-linejoin="round"/>
<path d="M8.25016 10.0833C10.2752 10.0833 11.9168 8.44171 11.9168 6.41667C11.9168 4.39162 10.2752 2.75 8.25016 2.75C6.22512 2.75 4.5835 4.39162 4.5835 6.41667C4.5835 8.44171 6.22512 10.0833 8.25016 10.0833Z" stroke="#054F31" stroke-width="1.83333" stroke-linecap="round" stroke-linejoin="round"/>
<path d="M20.1665 19.25V17.4166C20.1659 16.6042 19.8955 15.815 19.3978 15.1729C18.9 14.5308 18.2031 14.0722 17.4165 13.8691" stroke="#054F31" stroke-width="1.83333" stroke-linecap="round" stroke-linejoin="round"/>
<path d="M14.6665 2.86914C15.4552 3.07108 16.1543 3.52978 16.6535 4.17293C17.1527 4.81607 17.4237 5.60707 17.4237 6.42122C17.4237 7.23538 17.1527 8.02638 16.6535 8.66952C16.1543 9.31266 15.4552 9.77136 14.6665 9.97331" stroke="#054F31" stroke-width="1.83333" stroke-linecap="round" stroke-linejoin="round"/>
</svg>
