<svg width="14" height="14" viewBox="0 0 14 14" fill="none" xmlns="http://www.w3.org/2000/svg">
<g clip-path="url(#clip0_4844_469)">
<path d="M12.8333 9.87038V11.6204C12.834 11.7828 12.8007 11.9436 12.7356 12.0925C12.6705 12.2414 12.5751 12.375 12.4554 12.4848C12.3357 12.5946 12.1943 12.6782 12.0404 12.7303C11.8865 12.7823 11.7235 12.8017 11.5617 12.787C9.76665 12.592 8.04242 11.9786 6.5275 10.9962C5.11807 10.1006 3.92311 8.90565 3.0275 7.49622C2.04166 5.97442 1.42814 4.2418 1.23667 2.43872C1.22209 2.2774 1.24126 2.11483 1.29296 1.96133C1.34466 1.80783 1.42775 1.66678 1.53695 1.54716C1.64615 1.42754 1.77905 1.33196 1.92721 1.26652C2.07537 1.20108 2.23553 1.1672 2.3975 1.16705H4.1475C4.4306 1.16426 4.70505 1.26451 4.9197 1.44911C5.13434 1.63371 5.27455 1.89006 5.31417 2.17038C5.38803 2.73042 5.52501 3.28031 5.7225 3.80955C5.80099 4.01834 5.81797 4.24525 5.77145 4.4634C5.72492 4.68154 5.61684 4.88178 5.46 5.04038L4.71917 5.78122C5.54958 7.24162 6.75877 8.45081 8.21917 9.28122L8.96 8.54038C9.1186 8.38355 9.31884 8.27546 9.53699 8.22894C9.75513 8.18241 9.98205 8.1994 10.1908 8.27788C10.7201 8.47537 11.27 8.61235 11.83 8.68622C12.1134 8.72619 12.3722 8.86892 12.5571 9.08725C12.7421 9.30559 12.8404 9.5843 12.8333 9.87038Z" stroke="#EDFAF5" stroke-width="1.16667" stroke-linecap="round" stroke-linejoin="round"/>
</g>
<defs>
<clipPath id="clip0_4844_469">
<rect width="14" height="14" fill="white"/>
</clipPath>
</defs>
</svg>
