<svg width="35" height="35" viewBox="0 0 35 35" fill="none" xmlns="http://www.w3.org/2000/svg">
<path d="M28.5439 18.5575C28.5439 25.6938 23.5484 29.262 17.611 31.3315C17.3001 31.4369 16.9624 31.4318 16.6548 31.3172C10.7031 29.262 5.70764 25.6938 5.70764 18.5575V8.56663C5.70764 8.1881 5.85801 7.82507 6.12568 7.55741C6.39334 7.28974 6.75637 7.13937 7.13491 7.13937C9.98943 7.13937 13.5576 5.42665 16.041 3.25721C16.3434 2.99887 16.7281 2.85693 17.1258 2.85693C17.5235 2.85693 17.9081 2.99887 18.2105 3.25721C20.7082 5.44092 24.2621 7.13937 27.1166 7.13937C27.4951 7.13937 27.8582 7.28974 28.1258 7.55741C28.3935 7.82507 28.5439 8.1881 28.5439 8.56663V18.5575Z" stroke="#213526" stroke-width="2.85453" stroke-linecap="round" stroke-linejoin="round"/>
</svg>
