<svg width="35" height="35" viewBox="0 0 35 35" fill="none" xmlns="http://www.w3.org/2000/svg">
<path d="M19.9845 25.6873V8.5601C19.9845 7.80303 19.6837 7.07697 19.1484 6.54164C18.6131 6.00631 17.887 5.70557 17.1299 5.70557H5.71183C4.95476 5.70557 4.2287 6.00631 3.69337 6.54164C3.15804 7.07697 2.8573 7.80303 2.8573 8.5601V24.26C2.8573 24.6385 3.00767 25.0016 3.27534 25.2692C3.543 25.5369 3.90603 25.6873 4.28456 25.6873H7.13909" stroke="#213526" stroke-width="2.85453" stroke-linecap="round" stroke-linejoin="round"/>
<path d="M21.41 25.689H12.8464" stroke="#213526" stroke-width="2.85453" stroke-linecap="round" stroke-linejoin="round"/>
<path d="M27.1208 25.6906H29.9753C30.3539 25.6906 30.7169 25.5402 30.9846 25.2726C31.2522 25.0049 31.4026 24.6419 31.4026 24.2633V19.0538C31.402 18.7299 31.2913 18.4159 31.0886 18.1632L26.1217 11.9546C25.9882 11.7875 25.8189 11.6524 25.6262 11.5596C25.4335 11.4667 25.2224 11.4183 25.0085 11.418H19.9845" stroke="#213526" stroke-width="2.85453" stroke-linecap="round" stroke-linejoin="round"/>
<path d="M24.2646 28.5421C25.8411 28.5421 27.1191 27.264 27.1191 25.6875C27.1191 24.111 25.8411 22.833 24.2646 22.833C22.6881 22.833 21.41 24.111 21.41 25.6875C21.41 27.264 22.6881 28.5421 24.2646 28.5421Z" stroke="#213526" stroke-width="2.85453" stroke-linecap="round" stroke-linejoin="round"/>
<path d="M9.99363 28.5421C11.5701 28.5421 12.8482 27.264 12.8482 25.6875C12.8482 24.111 11.5701 22.833 9.99363 22.833C8.41712 22.833 7.1391 24.111 7.1391 25.6875C7.1391 27.264 8.41712 28.5421 9.99363 28.5421Z" stroke="#213526" stroke-width="2.85453" stroke-linecap="round" stroke-linejoin="round"/>
</svg>
