<svg width="24" height="24" viewBox="0 0 24 24" fill="none" xmlns="http://www.w3.org/2000/svg">
<path d="M7 16.2998C9.2 16.2998 11 14.4698 11 12.2498C11 11.0898 10.43 9.9898 9.29 9.0598C8.15 8.1298 7.29 6.7498 7 5.2998C6.71 6.7498 5.86 8.1398 4.71 9.0598C3.56 9.9798 3 11.0998 3 12.2498C3 14.4698 4.8 16.2998 7 16.2998Z" stroke="#72BF96" stroke-width="2" stroke-linecap="round" stroke-linejoin="round"/>
<path d="M12.5598 6.60002C13.2476 5.50114 13.7351 4.28906 13.9998 3.02002C14.4998 5.52002 15.9998 7.92002 17.9998 9.52002C19.9998 11.12 20.9998 13.02 20.9998 15.02C21.0056 16.4023 20.6007 17.7552 19.8366 18.9071C19.0726 20.059 17.9837 20.9582 16.708 21.4905C15.4323 22.0229 14.0273 22.1644 12.671 21.8973C11.3148 21.6302 10.0684 20.9664 9.08984 19.99" stroke="#72BF96" stroke-width="2" stroke-linecap="round" stroke-linejoin="round"/>
</svg>
