<svg width="35" height="35" viewBox="0 0 35 35" fill="none" xmlns="http://www.w3.org/2000/svg">
<path d="M20.983 8.99156C20.7215 9.25835 20.575 9.61705 20.575 9.99064C20.575 10.3642 20.7215 10.7229 20.983 10.9897L23.2666 13.2734C23.5334 13.5349 23.8921 13.6813 24.2657 13.6813C24.6393 13.6813 24.998 13.5349 25.2648 13.2734L30.6456 7.89256C31.3632 9.47852 31.5805 11.2455 31.2685 12.9581C30.9565 14.6707 30.1299 16.2475 28.899 17.4785C27.6681 18.7094 26.0912 19.5359 24.3787 19.848C22.6661 20.16 20.899 19.9427 19.3131 19.225L9.45069 29.0874C8.88289 29.6552 8.11278 29.9742 7.30979 29.9742C6.5068 29.9742 5.73669 29.6552 5.16889 29.0874C4.60109 28.5196 4.2821 27.7495 4.2821 26.9465C4.2821 26.1436 4.60109 25.3734 5.16889 24.8056L15.0313 14.9433C14.3136 13.3573 14.0963 11.5903 14.4083 9.87768C14.7204 8.16509 15.5469 6.58826 16.7779 5.35734C18.0088 4.12642 19.5856 3.29987 21.2982 2.98783C23.0108 2.67579 24.7778 2.89309 26.3638 3.61077L20.9973 8.97728L20.983 8.99156Z" stroke="#213526" stroke-width="2.85453" stroke-linecap="round" stroke-linejoin="round"/>
</svg>
